<?xml version="1.0" encoding="utf-8"?>
<!-- Svg Vector Icons : http://www.onlinewebfonts.com/icon -->
<!DOCTYPE svg PUBLIC "-//W3C//DTD SVG 1.1//EN" "http://www.w3.org/Graphics/SVG/1.1/DTD/svg11.dtd">
<svg version="1.1" xmlns="http://www.w3.org/2000/svg" xmlns:xlink="http://www.w3.org/1999/xlink" x="0px" y="0px" viewBox="0 0 1000 1000" enable-background="new 0 0 1000 1000" xml:space="preserve">
<metadata> Svg Vector Icons : http://www.onlinewebfonts.com/icon </metadata>
<g><g transform="translate(0.000000,511.000000) scale(0.100000,-0.100000)"><path d="M4739.7,4998.7c-978.5-75.9-1741.3-329.5-2486.1-828.7C1394.9,3596.9,654.1,2628.5,328.6,1656C148.8,1120.8,84.9,655.5,102.9,10.6c35.9-1347.9,491.2-2448.2,1373.9-3326.8C2505.2-4344.6,3875-4869.8,5268.8-4772c928.5,63.9,1739.3,321.5,2432.2,774.8c892.6,587.1,1621.4,1537.6,1958.9,2566c271.6,828.7,313.5,1727.3,121.8,2613.9c-421.3,1941-2076.7,3478.6-4061.6,3770.1C5468.5,4988.8,4939.3,5014.7,4739.7,4998.7z M5548.4,4569.4c493.3-57.9,948.5-195.7,1447.7-437.3c1815.2-880.6,2819.6-2933.4,2416.2-4942.3c-225.6-1122.2-950.5-2166.6-1976.9-2849.5c-561.1-375.4-1248-617-1966.9-694.9c-267.6-30-818.7-30-1038.4-2c-1006.4,133.8-1877.1,549.1-2574,1228.1C1119.3-2409.7,704-1594.9,544.2-550.6c-51.9,329.5-51.9,1126.2-2,1417.8c125.8,720.9,407.4,1359.9,858.7,1954.9c163.8,215.7,543.2,603.1,752.8,770.8C3120.2,4361.7,4332.3,4711.2,5548.4,4569.4z"/><path d="M3501.6,2662.4c-193.7-47.9-319.5-149.8-411.4-331.5c-85.9-167.7-123.8-353.4-123.8-595.1c0-543.2,237.6-918.6,577.1-918.6c209.7,0,371.4,105.8,481.2,313.5c261.6,489.2,133.8,1290-233.6,1477.7C3697.3,2654.4,3571.5,2678.4,3501.6,2662.4z"/><path d="M6277.2,2660.4c-255.6-57.9-423.3-249.6-501.2-579.1c-43.9-179.7-43.9-515.2-2-690.9c87.9-355.4,293.5-573.1,545.1-573.1c277.6,0,481.3,195.7,579.1,559.1c47.9,177.7,47.9,543.2,2,718.9c-79.9,295.5-229.6,493.2-419.3,549.1C6379.1,2674.4,6349.1,2676.4,6277.2,2660.4z"/><path d="M7405.5-548.6c2-63.9,63.9-189.7,179.7-359.4c75.9-111.8,101.8-165.8,91.8-197.7c-27.9-109.8-265.6-433.3-469.3-635c-367.4-367.4-786.7-601.1-1319.9-736.9c-393.4-99.8-1044.4-131.8-1477.7-69.9c-928.5,131.8-1683.4,613-2036.8,1296c-43.9,85.9-79.9,167.7-79.9,185.7c0,16,39.9,87.9,89.9,157.8c103.8,143.8,167.7,275.6,169.7,341.5c0,35.9-34,10-163.8-125.8c-241.6-251.6-503.2-433.3-768.8-539.2l-75.9-28l129.8,10c71.9,6,197.7,28,279.6,49.9c175.7,45.9,179.7,45.9,179.7,18c0-12,35.9-99.8,79.9-193.7c467.3-994.4,1461.7-1563.5,2735.7-1561.6c561.1,2,1072.3,113.8,1551.6,341.5c201.7,95.8,533.1,317.5,698.9,467.3c237.6,213.7,503.2,585.1,605,848.7c24,59.9,45.9,111.8,47.9,115.8c4,2,99.8-17.9,213.7-45.9c113.8-27.9,231.7-49.9,259.6-49.9c93.9,0,79.9,26-31.9,61.9c-205.7,63.9-383.4,187.7-643,447.3C7463.4-562.5,7405.5-514.6,7405.5-548.6z"/></g></g>
</svg>